<?xml version="1.0" encoding="utf-8"?>
<!-- Svg Vector Icons : http://www.onlinewebfonts.com/icon -->
<!DOCTYPE svg PUBLIC "-//W3C//DTD SVG 1.1//EN" "http://www.w3.org/Graphics/SVG/1.1/DTD/svg11.dtd">
<svg version="1.1" xmlns="http://www.w3.org/2000/svg" xmlns:xlink="http://www.w3.org/1999/xlink" x="0px" y="0px" viewBox="0 0 256 256" enable-background="new 0 0 256 256" xml:space="preserve">
<metadata> Svg Vector Icons : http://www.onlinewebfonts.com/icon </metadata>
<g><g><path fill="#000000" d="M50.9,92.5H92V59.9H50.9V92.5z M59,68h25v16.5H59V68z"/><path fill="#000000" d="M112.7,92.5h41.1V59.9h-41.1V92.5z M120.8,68h25v16.5h-25V68z"/><path fill="#000000" d="M50.9,144.7H92V112H50.9V144.7z M59,120.1h25v16.5H59V120.1z"/><path fill="#000000" d="M112.7,144.7h41.1V112h-41.1V144.7z M120.8,120.1h25v16.5h-25V120.1z"/><path fill="#000000" d="M50.9,196.1H92v-32.6H50.9V196.1z M59,171.5h25V188H59V171.5z"/><path fill="#000000" d="M112.7,196.1h41.1v-32.6h-41.1V196.1z M120.8,171.5h25V188h-25V171.5z"/><path fill="#000000" d="M189.2,119.4h11.7v31.9h-11.7V119.4L189.2,119.4z"/><path fill="#000000" d="M189.2,175.8h11.7v31.9h-11.7V175.8z"/><path fill="#000000" d="M219,227.7V91.5h-40.3V20.2H26v207.5H10v8.1h16h147.9h4.8H219h27v-8.1H219L219,227.7z M34.1,227.7V28.2h136.6v199.5L34.1,227.7L34.1,227.7z M178.7,227.7V99.6H211v128.1L178.7,227.7L178.7,227.7z"/></g></g>
</svg>